<svg width="18" height="18" viewBox="0 0 18 18" fill="none" xmlns="http://www.w3.org/2000/svg">
<path d="M11.7842 12.5798L5.42027 6.21583C5.20283 5.99839 5.20283 5.63777 5.42027 5.42033C5.6377 5.2029 5.99833 5.2029 6.21576 5.42033L12.5797 11.7843C12.7972 12.0017 12.7972 12.3624 12.5797 12.5798C12.3623 12.7972 12.0017 12.7972 11.7842 12.5798Z" fill="#2B3B62"/>
<path d="M5.42027 12.5798C5.20284 12.3624 5.20284 12.0017 5.42027 11.7843L11.7842 5.42033C12.0017 5.2029 12.3623 5.2029 12.5797 5.42033C12.7972 5.63777 12.7972 5.99839 12.5797 6.21583L6.21577 12.5798C5.99833 12.7972 5.63771 12.7972 5.42027 12.5798Z" fill="#2B3B62"/>
</svg>
