<svg width="29" height="28" viewBox="0 0 29 28" fill="none" xmlns="http://www.w3.org/2000/svg">
<path opacity="0.4" d="M13.9166 24.5C20.0378 24.5 25 19.5378 25 13.4167C25 7.29552 20.0378 2.33334 13.9166 2.33334C7.79549 2.33334 2.83331 7.29552 2.83331 13.4167C2.83331 19.5378 7.79549 24.5 13.9166 24.5Z" fill="#FCFCFC"/>
<path d="M25.35 25.6667C25.14 25.6667 24.93 25.585 24.7783 25.4333L22.6083 23.2633C22.2933 22.9483 22.2933 22.435 22.6083 22.1083C22.9233 21.7933 23.4367 21.7933 23.7633 22.1083L25.9333 24.2783C26.2483 24.5933 26.2483 25.1067 25.9333 25.4333C25.77 25.585 25.56 25.6667 25.35 25.6667Z" fill="#FCFCFC"/>
</svg>
