<svg width="24" height="24" viewBox="0 0 24 24" fill="none" xmlns="http://www.w3.org/2000/svg">
<path fill-rule="evenodd" clip-rule="evenodd" d="M12.0607 8.56065C12.6464 7.97486 12.6464 7.02511 12.0606 6.43933C11.4748 5.85355 10.5251 5.85356 9.93932 6.43935L5.57066 10.8081L5.57037 10.8084L5.56988 10.8088C5.54732 10.8314 5.52555 10.8544 5.50454 10.8779C5.19503 11.1527 5 11.5536 5 12C5 12.4464 5.19503 12.8473 5.50454 13.1221C5.52554 13.1456 5.54732 13.1686 5.56988 13.1912L5.57037 13.1916L5.57066 13.1919L9.93932 17.5607C10.5251 18.1464 11.4748 18.1465 12.0606 17.5607C12.6464 16.9749 12.6464 16.0251 12.0607 15.4393L10.1213 13.5H18.5C19.3284 13.5 20 12.8284 20 12C20 11.1716 19.3284 10.5 18.5 10.5H10.1213L12.0607 8.56065Z" fill="#F0F0F0"/>
</svg>
