<svg width="14" height="14" viewBox="0 0 14 14" fill="none" xmlns="http://www.w3.org/2000/svg">
<path fill-rule="evenodd" clip-rule="evenodd" d="M3.17855 0.821407C2.52768 0.170534 1.4724 0.170534 0.821529 0.821407C0.170656 1.47228 0.170656 2.52756 0.821529 3.17843L4.64302 6.99992L0.821529 10.8214C0.170656 11.4723 0.170656 12.5276 0.821529 13.1784C1.4724 13.8293 2.52768 13.8293 3.17855 13.1784L7.00004 9.35694L10.8215 13.1784C11.4724 13.8293 12.5277 13.8293 13.1786 13.1784C13.8294 12.5276 13.8294 11.4723 13.1786 10.8214L9.35706 6.99992L13.1786 3.17843C13.8294 2.52756 13.8294 1.47228 13.1786 0.821407C12.5277 0.170534 11.4724 0.170534 10.8215 0.821407L7.00004 4.64289L3.17855 0.821407Z" fill="#2B3B62"/>
</svg>
