<svg width="16" height="16" viewBox="0 0 16 16" fill="none" xmlns="http://www.w3.org/2000/svg">
<path opacity="0.4" d="M5.70661 2.22667V11.78C5.47995 11.7867 5.25328 11.84 5.08661 11.94L3.51994 12.8333C2.42661 13.46 1.52661 12.94 1.52661 11.6733V5.18667C1.52661 4.76667 1.82661 4.24667 2.19994 4.03333L5.08661 2.38C5.25328 2.28667 5.47995 2.23333 5.70661 2.22667Z" fill="#FCFF84"/>
<path d="M10.4867 4.22V13.7733C10.2533 13.78 10.0267 13.74 9.84667 13.6533L6.34667 11.9C6.16667 11.8133 5.94 11.7733 5.70667 11.78V2.22667C5.94 2.22 6.16667 2.26 6.34667 2.34667L9.84667 4.1C10.0267 4.18667 10.2533 4.22667 10.4867 4.22Z" fill="#FCFF84"/>
<path opacity="0.4" d="M14.6667 4.32667V10.8133C14.6667 11.2333 14.3667 11.7533 13.9934 11.9667L11.1067 13.62C10.94 13.7133 10.7134 13.7667 10.4867 13.7733V4.22C10.7134 4.21333 10.94 4.16 11.1067 4.06L12.6734 3.16667C13.7667 2.54 14.6667 3.06 14.6667 4.32667Z" fill="#FCFF84"/>
</svg>
